<svg width="700" height="700" viewBox="0 0 700 700" fill="none" xmlns="http://www.w3.org/2000/svg">
<path d="M562.59 244.048C553.07 319.956 486.57 395.738 413.434 444.542C224.434 571.69 41.72 355.936 87.808 278.446C122.402 199.85 230.314 221.438 276.22 190.54C534.226 15.652 571.536 180.516 562.59 244.048Z" fill="#407BFF"/>
<path opacity="0.9" d="M562.59 244.048C553.07 319.956 486.57 395.738 413.434 444.542C224.434 571.69 41.72 355.936 87.808 278.446C122.402 199.85 230.314 221.438 276.22 190.54C534.226 15.652 571.536 180.516 562.59 244.048Z" fill="white"/>
<path d="M350 598.584C499.915 598.584 621.446 591.489 621.446 582.736C621.446 573.983 499.915 566.888 350 566.888C200.085 566.888 78.554 573.983 78.554 582.736C78.554 591.489 200.085 598.584 350 598.584Z" fill="#F5F5F5"/>
<path d="M349.944 505.47H151.144L140.266 185.752H339.066L349.944 505.47Z" fill="#407BFF"/>
<path d="M359.87 495.544H161.07L150.178 175.826H348.978L359.87 495.544Z" fill="#407BFF"/>
<path opacity="0.3" d="M359.87 495.544H161.07L150.178 175.826H348.978L359.87 495.544Z" fill="white"/>
<path d="M293.262 307.389C314.547 285.736 313.642 250.33 291.239 228.307C268.836 206.284 233.419 205.984 212.133 227.637C190.848 249.29 191.753 284.697 214.156 306.72C236.559 328.743 271.976 329.043 293.262 307.389Z" fill="#407BFF"/>
<path d="M298.858 267.526C299.144 275.144 297.482 282.71 294.028 289.506C290.3 296.83 284.605 302.971 277.582 307.239C270.559 311.507 262.486 313.734 254.268 313.67C245.857 313.625 237.606 311.368 230.342 307.127C223.078 302.886 217.058 296.809 212.884 289.506C208.992 282.814 206.818 275.263 206.556 267.526C206.298 261.527 207.262 255.538 209.39 249.924C211.517 244.309 214.765 239.185 218.934 234.864C223.103 230.543 228.107 227.115 233.642 224.787C239.177 222.46 245.128 221.282 251.132 221.326C263.501 221.414 275.362 226.263 284.249 234.866C293.137 243.47 298.369 255.166 298.858 267.526Z" fill="white"/>
<path opacity="0.6" d="M294 289.506C290.272 296.83 284.577 302.971 277.554 307.239C270.531 311.507 262.458 313.734 254.24 313.67C245.829 313.625 237.578 311.368 230.314 307.127C223.05 302.886 217.03 296.809 212.856 289.506C224.696 281.434 238.706 277.143 253.036 277.2C267.597 277.231 281.832 281.508 294 289.506Z" fill="#407BFF"/>
<path opacity="0.6" d="M267.081 266.375C274.908 258.413 274.575 245.393 266.337 237.295C258.099 229.197 245.076 229.087 237.249 237.049C229.422 245.011 229.755 258.03 237.993 266.129C246.231 274.227 259.254 274.337 267.081 266.375Z" fill="#407BFF"/>
<path d="M319.928 379.764H193.116L192.262 354.564H319.074L319.928 379.764Z" fill="white"/>
<path d="M321.468 424.802H194.642L193.788 399.602H320.614L321.468 424.802Z" fill="white"/>
<path d="M272.524 403.074L241.962 407.274C241.67 407.307 241.389 407.4 241.135 407.548C240.881 407.695 240.66 407.893 240.487 408.13C240.313 408.367 240.191 408.637 240.126 408.923C240.062 409.209 240.058 409.506 240.114 409.794L244.132 430.276C244.263 430.877 244.615 431.407 245.118 431.762C245.62 432.117 246.238 432.271 246.848 432.194L277.41 427.994C277.701 427.957 277.981 427.861 278.233 427.712C278.486 427.562 278.705 427.362 278.877 427.125C279.049 426.887 279.17 426.617 279.233 426.331C279.296 426.044 279.3 425.748 279.244 425.46L275.24 404.978C275.108 404.378 274.756 403.849 274.253 403.497C273.75 403.144 273.133 402.993 272.524 403.074ZM263.746 423.822L258.146 424.564L257.6 417.956C257.023 417.706 256.514 417.322 256.117 416.834C255.72 416.347 255.446 415.772 255.318 415.156C255.215 414.679 255.213 414.186 255.313 413.709C255.413 413.231 255.612 412.78 255.897 412.384C256.182 411.988 256.547 411.656 256.968 411.41C257.389 411.165 257.857 411.01 258.342 410.956C259.336 410.828 260.343 411.078 261.162 411.656C261.981 412.234 262.553 413.098 262.766 414.078C262.887 414.67 262.85 415.283 262.658 415.856C262.467 416.429 262.127 416.941 261.674 417.34L263.746 423.822Z" fill="#407BFF"/>
<path d="M269.5 401.968C268.96 402.037 268.413 401.901 267.968 401.588C267.522 401.274 267.21 400.806 267.092 400.274L266.7 398.272C266.141 395.54 264.609 393.104 262.39 391.415C260.171 389.726 257.414 388.899 254.632 389.088C253.228 389.168 251.858 389.549 250.614 390.206C249.37 390.863 248.283 391.779 247.425 392.893C246.567 394.008 245.959 395.294 245.642 396.664C245.325 398.034 245.306 399.456 245.588 400.834L246.036 403.144C246.088 403.4 246.086 403.664 246.031 403.919C245.975 404.174 245.866 404.415 245.712 404.626C245.558 404.837 245.361 405.013 245.135 405.144C244.909 405.274 244.658 405.356 244.398 405.384C243.857 405.459 243.307 405.327 242.86 405.012C242.413 404.698 242.102 404.225 241.99 403.69L241.612 401.744C241.228 399.925 241.215 398.048 241.575 396.224C241.934 394.4 242.659 392.668 243.705 391.131C244.751 389.595 246.097 388.286 247.662 387.282C249.227 386.279 250.979 385.603 252.812 385.294C256.786 384.627 260.865 385.515 264.202 387.775C267.539 390.035 269.877 393.494 270.732 397.432L271.18 399.728C271.232 399.987 271.229 400.254 271.171 400.512C271.113 400.77 271 401.013 270.842 401.224C270.683 401.436 270.482 401.611 270.25 401.74C270.019 401.868 269.763 401.946 269.5 401.968Z" fill="#407BFF"/>
<path d="M300.538 460.096H217.98L217.434 443.688H299.978L300.538 460.096Z" fill="#407BFF"/>
<path d="M260.708 367.164C260.733 367.762 260.636 368.36 260.422 368.92C260.209 369.479 259.885 369.99 259.469 370.421C259.052 370.851 258.553 371.193 258.001 371.425C257.449 371.657 256.855 371.774 256.256 371.77C255.022 371.76 253.838 371.277 252.95 370.42C252.061 369.563 251.536 368.397 251.482 367.164C251.457 366.566 251.554 365.968 251.767 365.408C251.981 364.849 252.305 364.338 252.721 363.907C253.138 363.477 253.637 363.135 254.189 362.903C254.741 362.671 255.335 362.554 255.934 362.558C257.169 362.564 258.355 363.046 259.244 363.904C260.133 364.762 260.658 365.93 260.708 367.164Z" fill="#263238"/>
<path d="M240.8 367.164C240.827 367.763 240.731 368.361 240.519 368.922C240.306 369.482 239.982 369.994 239.565 370.425C239.149 370.856 238.648 371.198 238.095 371.429C237.542 371.66 236.948 371.776 236.348 371.77C235.115 371.76 233.933 371.276 233.047 370.419C232.161 369.562 231.638 368.396 231.588 367.164C231.563 366.566 231.66 365.968 231.873 365.408C232.087 364.849 232.411 364.338 232.827 363.907C233.244 363.477 233.743 363.135 234.295 362.903C234.847 362.671 235.441 362.554 236.04 362.558C237.274 362.564 238.458 363.047 239.345 363.905C240.232 364.763 240.753 365.931 240.8 367.164Z" fill="#263238"/>
<path d="M221.018 367.164C221.043 367.762 220.946 368.36 220.732 368.92C220.519 369.479 220.195 369.99 219.779 370.421C219.362 370.851 218.863 371.193 218.311 371.425C217.759 371.657 217.165 371.774 216.566 371.77C215.332 371.764 214.148 371.281 213.261 370.423C212.374 369.565 211.853 368.397 211.806 367.164C211.781 366.566 211.878 365.968 212.091 365.408C212.304 364.849 212.629 364.338 213.045 363.907C213.462 363.477 213.961 363.135 214.513 362.903C215.065 362.671 215.659 362.554 216.258 362.558C217.492 362.564 218.676 363.047 219.563 363.905C220.45 364.763 220.971 365.931 221.018 367.164Z" fill="#263238"/>
<path d="M280.546 367.164C280.571 367.762 280.474 368.36 280.26 368.92C280.047 369.479 279.723 369.99 279.307 370.421C278.89 370.851 278.391 371.193 277.839 371.425C277.287 371.657 276.693 371.774 276.094 371.77C274.86 371.764 273.676 371.281 272.789 370.423C271.902 369.565 271.381 368.397 271.334 367.164C271.313 366.567 271.414 365.973 271.629 365.416C271.845 364.859 272.172 364.352 272.589 363.925C273.007 363.499 273.507 363.161 274.059 362.933C274.611 362.705 275.203 362.592 275.8 362.6C277.025 362.609 278.199 363.088 279.082 363.937C279.965 364.786 280.489 365.941 280.546 367.164Z" fill="#263238"/>
<path d="M300.384 367.164C300.411 367.763 300.315 368.361 300.103 368.922C299.89 369.482 299.566 369.994 299.149 370.425C298.733 370.856 298.232 371.198 297.679 371.429C297.126 371.66 296.531 371.776 295.932 371.77C294.699 371.76 293.517 371.276 292.631 370.419C291.745 369.562 291.222 368.396 291.172 367.164C291.147 366.566 291.244 365.968 291.457 365.408C291.67 364.849 291.995 364.338 292.411 363.907C292.828 363.477 293.327 363.135 293.879 362.903C294.431 362.671 295.025 362.554 295.624 362.558C296.858 362.564 298.042 363.047 298.929 363.905C299.816 364.763 300.337 365.931 300.384 367.164Z" fill="#263238"/>
<path d="M467.474 243.992C469.336 246.988 470.89 249.844 472.486 252.826C474.082 255.808 475.524 258.804 476.938 261.87C479.823 268.078 482.211 274.506 484.078 281.092C484.33 281.918 484.512 282.8 484.722 283.654L485.03 284.956L485.184 285.6L485.366 286.664C485.682 289.078 485.534 291.529 484.932 293.888C483.966 297.55 482.495 301.06 480.564 304.318C477.109 310.238 472.933 315.707 468.132 320.6L462.238 316.148C465.197 310.709 467.828 305.1 470.12 299.348C471.141 296.814 471.86 294.168 472.262 291.466C472.391 290.641 472.353 289.798 472.15 288.988L471.59 287.28C471.366 286.58 471.156 285.88 470.89 285.166C468.761 279.39 466.297 273.744 463.512 268.254C460.712 262.654 457.702 257.054 454.692 251.706L467.474 243.992Z" fill="#FF8B7B"/>
<path d="M463.736 314.202L457.296 317.604L464.688 326.256C464.688 326.256 469.308 323.134 469.518 318.374L463.736 314.202Z" fill="#FF8B7B"/>
<path d="M448.658 322.938L456.568 329.224L464.688 326.256L457.296 317.604L448.658 322.938Z" fill="#FF8B7B"/>
<path d="M421.61 198.184C421.456 198.968 420.91 199.514 420.406 199.416C419.902 199.318 419.608 198.59 419.762 197.82C419.916 197.05 420.462 196.42 420.98 196.588C421.498 196.756 421.764 197.4 421.61 198.184Z" fill="#263238"/>
<path d="M420.98 199.528C419.57 201.721 417.865 203.709 415.912 205.436C416.373 205.914 416.932 206.287 417.551 206.528C418.169 206.77 418.833 206.875 419.496 206.836L420.98 199.528Z" fill="#FF5652"/>
<path d="M418.46 226.996V217.812L430.612 219.212C430.612 219.212 430.416 227.108 423.612 229.432L418.46 226.996Z" fill="#FF8B7B"/>
<path d="M421.96 211.204L430.514 213.668L430.668 219.282L418.516 217.812L421.96 211.204Z" fill="#FF8B7B"/>
<path opacity="0.2" d="M430.514 213.668L421.96 211.204L420.294 214.396C420.385 216.911 421.171 219.352 422.565 221.448C423.958 223.543 425.906 225.212 428.19 226.268C429.66 224.215 430.519 221.788 430.668 219.268L430.514 213.668Z" fill="black"/>
<path d="M425.334 194.446C425.424 194.444 425.511 194.416 425.586 194.366C425.66 194.316 425.719 194.246 425.756 194.164C425.792 194.082 425.805 193.992 425.792 193.903C425.78 193.814 425.742 193.73 425.684 193.662C425.192 193.107 424.575 192.677 423.883 192.409C423.191 192.141 422.446 192.043 421.708 192.122C421.587 192.143 421.48 192.21 421.409 192.31C421.338 192.41 421.31 192.533 421.33 192.654C421.351 192.775 421.418 192.884 421.517 192.957C421.616 193.03 421.74 193.062 421.862 193.046C422.446 192.989 423.036 193.072 423.581 193.289C424.127 193.505 424.612 193.849 424.998 194.292C425.041 194.339 425.093 194.376 425.15 194.403C425.208 194.429 425.271 194.444 425.334 194.446Z" fill="#263238"/>
<path d="M443.226 212.352C441.826 219.562 440.958 229.544 446.026 234.346C446.026 234.346 444.066 241.654 430.626 241.654C415.912 241.654 423.556 235.242 423.556 235.242C429.674 233.338 429.618 226.38 428.218 220.78L443.226 212.352Z" fill="#FF8B7B"/>
<path d="M448.756 239.162C450.072 237.314 450.016 231.448 448.616 230.412C446.362 228.746 436.688 228.354 423.682 231.35C425.082 237.034 422.072 240.002 422.072 240.002L448.756 239.162Z" fill="#407BFF"/>
<path d="M492.52 571.536C492.12 571.677 491.697 571.737 491.274 571.713C490.851 571.689 490.437 571.581 490.056 571.396C489.912 571.262 489.812 571.086 489.772 570.893C489.732 570.7 489.753 570.499 489.832 570.318C489.876 570.167 489.953 570.027 490.057 569.908C490.161 569.79 490.29 569.695 490.434 569.632C491.764 568.988 494.816 570.234 494.956 570.29C494.998 570.307 495.033 570.336 495.058 570.373C495.083 570.411 495.096 570.455 495.096 570.5C495.096 570.545 495.084 570.589 495.062 570.628C495.04 570.667 495.008 570.7 494.97 570.724C494.181 571.071 493.36 571.343 492.52 571.536ZM490.91 569.954C490.818 569.976 490.728 570.009 490.644 570.052C490.557 570.084 490.478 570.136 490.415 570.204C490.352 570.272 490.305 570.355 490.28 570.444C490.154 570.864 490.28 571.004 490.364 571.046C490.896 571.494 492.856 571.046 494.242 570.528C493.188 570.092 492.05 569.896 490.91 569.954Z" fill="#407BFF"/>
<path d="M494.914 570.738H494.802C493.682 570.416 491.302 568.722 491.274 567.616C491.273 567.44 491.332 567.269 491.442 567.132C491.551 566.994 491.704 566.898 491.876 566.86C492.042 566.798 492.22 566.773 492.396 566.788C492.573 566.802 492.744 566.856 492.898 566.944C494.214 567.616 495.054 570.332 495.082 570.458C495.102 570.492 495.112 570.531 495.112 570.57C495.112 570.609 495.102 570.648 495.082 570.682C495.06 570.704 495.034 570.72 495.005 570.73C494.975 570.74 494.944 570.742 494.914 570.738ZM492.114 567.252H492.002C491.722 567.35 491.722 567.49 491.722 567.56C491.722 568.218 493.318 569.548 494.522 570.08C494.228 569.296 493.584 567.742 492.73 567.28C492.54 567.194 492.325 567.184 492.128 567.252H492.114Z" fill="#407BFF"/>
<path d="M419.804 573.188C418.544 573.188 417.326 573.006 416.92 572.446C416.814 572.297 416.757 572.118 416.757 571.935C416.757 571.752 416.814 571.573 416.92 571.424C417 571.287 417.107 571.168 417.235 571.074C417.362 570.98 417.508 570.914 417.662 570.878C419.3 570.43 422.744 572.39 422.884 572.474C422.927 572.495 422.962 572.53 422.982 572.573C423.002 572.617 423.007 572.665 422.996 572.712C422.991 572.76 422.97 572.805 422.937 572.84C422.905 572.875 422.861 572.899 422.814 572.908C421.821 573.09 420.814 573.184 419.804 573.188ZM418.25 571.27C418.102 571.246 417.95 571.246 417.802 571.27C417.707 571.29 417.617 571.328 417.538 571.384C417.458 571.439 417.391 571.51 417.34 571.592C417.172 571.886 417.242 572.026 417.34 572.11C417.802 572.754 420.28 572.768 422.114 572.502C420.917 571.848 419.605 571.429 418.25 571.27Z" fill="#407BFF"/>
<path d="M422.8 572.908H422.702C421.512 572.376 419.16 570.248 419.342 569.128C419.342 568.862 419.566 568.54 420.21 568.484C420.44 568.457 420.673 568.478 420.895 568.545C421.117 568.613 421.322 568.725 421.498 568.876C422.395 569.949 422.934 571.275 423.038 572.67C423.038 572.71 423.029 572.749 423.012 572.786C422.995 572.822 422.97 572.854 422.94 572.88C422.897 572.902 422.848 572.912 422.8 572.908ZM420.392 568.918H420.252C419.832 568.918 419.804 569.114 419.804 569.17C419.692 569.842 421.288 571.522 422.506 572.25C422.399 571.126 421.944 570.064 421.204 569.212C420.974 569.016 420.68 568.911 420.378 568.918H420.392Z" fill="#407BFF"/>
<path d="M433.608 572.684H423.766L422.786 549.878H432.628L433.608 572.684Z" fill="#FF8B7B"/>
<path d="M505.89 568.12L496.272 570.206L486.598 548.968L496.23 546.882L505.89 568.12Z" fill="#FF8B7B"/>
<path d="M495.334 569.24L506.156 566.902C506.345 566.862 506.542 566.887 506.715 566.974C506.888 567.06 507.027 567.203 507.108 567.378L510.86 575.526C510.96 575.723 511.012 575.941 511.011 576.163C511.01 576.384 510.957 576.602 510.856 576.798C510.755 576.995 510.609 577.165 510.429 577.294C510.25 577.423 510.043 577.508 509.824 577.542C506.044 578.284 504.154 578.466 499.408 579.488C496.482 580.132 489.874 581.742 485.828 582.61C481.782 583.478 480.396 579.6 481.978 578.886C489.048 575.652 491.988 572.81 493.906 570.164C494.253 569.692 494.761 569.363 495.334 569.24Z" fill="#263238"/>
<path d="M423.836 571.536H434.588C434.783 571.537 434.972 571.604 435.125 571.726C435.277 571.848 435.384 572.018 435.428 572.208L437.374 580.958C437.431 581.17 437.438 581.391 437.393 581.606C437.349 581.82 437.255 582.022 437.119 582.193C436.983 582.365 436.808 582.502 436.609 582.594C436.411 582.686 436.193 582.73 435.974 582.722C432.096 582.652 426.496 582.428 421.624 582.428C415.912 582.428 410.998 582.736 404.306 582.736C400.26 582.736 399.14 578.648 400.834 578.27C408.534 576.59 414.834 576.408 421.484 572.306C422.182 571.838 422.996 571.572 423.836 571.536Z" fill="#263238"/>
<path d="M463.638 236.6C472.864 238.714 480.438 262.276 480.438 262.276L462 276.374C457.214 271.257 453.838 264.986 452.2 258.174C448.938 245.826 454.202 234.416 463.638 236.6Z" fill="#407BFF"/>
<path opacity="0.4" d="M463.638 236.6C472.864 238.714 480.438 262.276 480.438 262.276L462 276.374C457.214 271.257 453.838 264.986 452.2 258.174C448.938 245.826 454.202 234.416 463.638 236.6Z" fill="black"/>
<path d="M415.1 264.698C412.804 267.176 410.508 269.388 408.1 271.698C406.91 272.818 405.706 273.938 404.474 275.016L402.612 276.654L402.15 277.06L401.352 277.704C400.531 278.36 399.621 278.897 398.65 279.3C397.569 279.759 396.408 279.997 395.234 280C394.231 280.004 393.235 279.829 392.294 279.482C391.25 279.084 390.298 278.48 389.494 277.704C388.468 276.702 387.717 275.453 387.31 274.078C387.097 273.4 386.961 272.7 386.904 271.992C386.831 271.163 386.831 270.329 386.904 269.5C386.974 268.828 387.058 268.24 387.17 267.694C387.553 265.785 388.096 263.912 388.794 262.094C389.424 260.366 390.148 258.674 390.964 257.026C391.86 255.248 392.714 253.946 393.568 252.462C397.037 246.78 400.995 241.411 405.398 236.418C409.757 231.454 414.56 226.899 419.748 222.81L424.9 228.116C421.288 232.96 417.732 238.154 414.442 243.264C411.168 248.345 408.176 253.603 405.482 259.014C404.88 260.33 404.082 261.814 403.704 262.878C403.203 264.114 402.769 265.376 402.402 266.658C402.049 267.813 401.782 268.992 401.604 270.186C401.595 270.373 401.595 270.559 401.604 270.746C401.604 270.858 401.604 270.914 401.604 270.62C401.581 270.306 401.52 269.996 401.422 269.696C401.119 268.703 400.565 267.806 399.812 267.092C399.142 266.477 398.357 266.001 397.502 265.692C396.75 265.407 395.954 265.26 395.15 265.258C394.377 265.249 393.61 265.396 392.896 265.692C392.654 265.791 392.42 265.908 392.196 266.042L392.728 265.552L394.422 264.012L397.768 260.876C399.98 258.79 402.206 256.564 404.306 254.492L415.1 264.698Z" fill="#FF8B7B"/>
<path opacity="0.2" d="M455.728 253.904C460.74 258.86 462.378 267.904 462.728 275.744L461.916 276.374C457.13 271.257 453.754 264.986 452.116 258.174C451.934 257.446 451.766 256.774 451.64 255.976L455.728 253.904Z" fill="black"/>
<path d="M405.314 246.4C403.298 257.04 402.038 278.894 407.876 322.154H460.6C460.964 314.076 455.882 274.624 463.68 236.53C457.854 235.411 451.962 234.668 446.04 234.304C438.579 233.876 431.101 233.876 423.64 234.304C421.176 234.528 418.74 234.892 416.64 235.27C413.847 235.76 411.269 237.086 409.246 239.074C407.224 241.061 405.853 243.616 405.314 246.4Z" fill="#407BFF"/>
<path opacity="0.4" d="M405.314 246.4C403.298 257.04 402.038 278.894 407.876 322.154H460.6C460.964 314.076 455.882 274.624 463.68 236.53C457.854 235.411 451.962 234.668 446.04 234.304C438.579 233.876 431.101 233.876 423.64 234.304C421.176 234.528 418.74 234.892 416.64 235.27C413.847 235.76 411.269 237.086 409.246 239.074C407.224 241.061 405.853 243.616 405.314 246.4Z" fill="black"/>
<path opacity="0.2" d="M413.378 262.178L403.858 259.896C403.564 265.664 403.536 272.804 403.956 281.638C408.338 276.654 413.938 268.87 413.378 262.178Z" fill="black"/>
<path opacity="0.2" d="M422.786 549.878L423.29 561.638H433.146L432.642 549.878H422.786Z" fill="black"/>
<path opacity="0.2" d="M496.23 546.882L486.598 548.968L491.582 559.916L501.214 557.83L496.23 546.882Z" fill="black"/>
<path d="M447.902 201.824C445.382 211.26 444.374 216.916 438.55 220.836C429.8 226.8 418.88 219.968 418.6 210C418.292 200.998 422.478 187.068 432.6 185.164C434.824 184.747 437.118 184.902 439.266 185.617C441.413 186.331 443.343 187.581 444.874 189.248C446.405 190.914 447.487 192.944 448.016 195.144C448.546 197.344 448.507 199.643 447.902 201.824Z" fill="#FF8B7B"/>
<path d="M425.81 202.174C425.334 200.914 423.164 191.156 425.208 188.622C427.252 186.088 450.562 187.922 454.006 191.31C459.732 196.91 455.756 201.95 449.498 208.432C444.794 213.304 444.612 218.792 442.232 219.632C438.032 221.032 431.62 219.716 430.332 215.278C429.044 210.84 425.81 202.174 425.81 202.174Z" fill="#263238"/>
<path d="M451.178 180.208C442.946 176.708 427.504 180.586 419.16 178.57C419.054 181.673 420.074 184.709 422.032 187.118C423.991 189.526 426.755 191.145 429.814 191.674C436.736 192.993 443.768 193.645 450.814 193.62C459.97 193.2 458.178 183.19 451.178 180.208Z" fill="#263238"/>
<path d="M452.466 191.604C455.473 191.9 458.502 191.321 461.188 189.938C462.728 193.662 454.258 194.684 452.466 191.604Z" fill="#263238"/>
<path d="M430.29 202.566C430.101 204.994 429.117 207.292 427.49 209.104C425.334 211.47 423.094 209.986 422.716 207.116C422.38 204.512 423.08 200.116 425.712 198.856C428.344 197.596 430.472 199.64 430.29 202.566Z" fill="#FF8B7B"/>
<path d="M426.566 322.196C426.566 322.196 437.766 397.446 443.884 425.642C450.59 456.512 486.626 558.642 486.626 558.642L504.252 554.82C504.252 554.82 479.052 471.576 473.452 428.414C469.112 395.262 460.586 322.168 460.586 322.168L426.566 322.196Z" fill="#407BFF"/>
<path d="M482.398 552.776C482.328 552.776 485.688 559.16 485.688 559.16L505.512 554.862L503.846 548.898L482.398 552.776Z" fill="#263238"/>
<path opacity="0.3" d="M433.636 349.006C446.558 351.54 445.186 399.728 443.632 424.522C439.908 406.994 434.448 373.282 430.724 349.356C431.626 348.91 432.654 348.787 433.636 349.006Z" fill="black"/>
<path d="M407.876 322.196C407.876 322.196 406.476 395.822 407.596 425.796C408.716 457.03 419.622 559.3 419.622 559.3H436.31C436.31 559.3 436.912 458.85 437.71 428.176C438.522 394.744 442.554 322.14 442.554 322.14L407.876 322.196Z" fill="#407BFF"/>
<path d="M416.416 552.72C416.332 552.72 417.354 559.636 417.354 559.636H437.64L438.2 553.462L416.416 552.72Z" fill="#263238"/>
<path d="M425.95 249.676C430.668 262.402 402.934 277.396 402.934 277.396L390.922 261.996C390.922 261.996 399 246.008 408.8 238.812C420.91 229.936 422.352 239.988 425.95 249.676Z" fill="#407BFF"/>
<path opacity="0.4" d="M425.95 249.676C430.668 262.402 402.934 277.396 402.934 277.396L390.922 261.996C390.922 261.996 399 246.008 408.8 238.812C420.91 229.936 422.352 239.988 425.95 249.676Z" fill="black"/>
<path d="M534.618 153.062C562.523 153.062 585.144 138.646 585.144 120.862C585.144 103.078 562.523 88.662 534.618 88.662C506.713 88.662 484.092 103.078 484.092 120.862C484.092 138.646 506.713 153.062 534.618 153.062Z" fill="#407BFF"/>
<path d="M516.39 137.074C513.062 137.063 509.843 135.88 507.301 133.732C504.758 131.583 503.054 128.608 502.488 125.328C501.931 121.775 502.733 118.143 504.733 115.154C506.733 112.166 509.785 110.04 513.282 109.2C516.152 108.539 519.156 108.794 521.873 109.929C524.59 111.064 526.884 113.022 528.43 115.528L560.868 108.836C562.115 108.563 563.418 108.77 564.519 109.417C565.619 110.063 566.435 111.1 566.804 112.322C566.974 112.964 567.011 113.634 566.913 114.292C566.815 114.949 566.584 115.579 566.234 116.144C565.884 116.708 565.423 117.196 564.878 117.576C564.333 117.957 563.717 118.222 563.066 118.356L562.226 118.524C562.101 118.546 561.983 118.597 561.881 118.672C561.779 118.748 561.696 118.845 561.638 118.958C561.586 119.072 561.559 119.196 561.559 119.322C561.559 119.448 561.586 119.572 561.638 119.686L562.212 121.17C562.404 121.651 562.423 122.184 562.264 122.677C562.106 123.17 561.78 123.593 561.344 123.872C561 124.085 560.709 124.373 560.493 124.715C560.277 125.057 560.142 125.444 560.098 125.846C560.057 126.308 559.871 126.744 559.567 127.094C559.262 127.443 558.855 127.688 558.404 127.792L557.746 127.932C557.29 128.016 556.819 127.953 556.401 127.752C555.983 127.55 555.64 127.221 555.422 126.812C555.131 126.324 554.696 125.938 554.176 125.709C553.656 125.48 553.077 125.42 552.521 125.535C551.964 125.651 551.458 125.937 551.072 126.354C550.686 126.771 550.44 127.298 550.368 127.862C550.329 128.321 550.145 128.755 549.843 129.102C549.541 129.449 549.137 129.692 548.688 129.794L548.03 129.934C547.574 130.016 547.104 129.952 546.686 129.751C546.269 129.55 545.926 129.222 545.706 128.814C545.496 128.467 545.214 128.169 544.878 127.942C544.542 127.715 544.16 127.563 543.76 127.498C543.222 127.433 542.725 127.174 542.365 126.769C542.004 126.365 541.803 125.842 541.8 125.3V123.704C541.794 123.579 541.762 123.457 541.704 123.346C541.647 123.235 541.567 123.137 541.468 123.06C541.37 122.983 541.256 122.928 541.135 122.899C541.013 122.87 540.887 122.868 540.764 122.892L530.418 125.02C529.996 127.886 528.701 130.553 526.71 132.657C524.718 134.761 522.127 136.201 519.288 136.78C518.334 136.975 517.363 137.073 516.39 137.074ZM513.59 110.474C510.415 111.216 507.638 113.133 505.82 115.84C504.001 118.547 503.276 121.842 503.79 125.062C504.341 128.058 505.945 130.758 508.313 132.673C510.682 134.589 513.657 135.593 516.702 135.505C519.747 135.417 522.66 134.243 524.913 132.194C527.167 130.145 528.613 127.357 528.99 124.334V123.83L540.4 121.52C540.727 121.441 541.068 121.436 541.398 121.504C541.727 121.573 542.037 121.715 542.306 121.919C542.574 122.122 542.793 122.383 542.948 122.682C543.102 122.982 543.189 123.311 543.2 123.648V125.244C543.203 125.434 543.272 125.617 543.394 125.763C543.516 125.908 543.685 126.007 543.872 126.042C544.484 126.13 545.068 126.355 545.58 126.702C546.092 127.049 546.518 127.508 546.826 128.044C546.9 128.195 547.02 128.319 547.168 128.4C547.316 128.48 547.485 128.512 547.652 128.492L548.296 128.352C548.459 128.31 548.605 128.216 548.711 128.085C548.816 127.954 548.877 127.792 548.884 127.624C548.972 126.752 549.335 125.932 549.921 125.28C550.506 124.628 551.284 124.18 552.141 123.999C552.998 123.818 553.89 123.915 554.689 124.274C555.488 124.634 556.151 125.238 556.584 126C556.656 126.15 556.773 126.274 556.918 126.354C557.064 126.434 557.231 126.467 557.396 126.448L558.068 126.308C558.229 126.263 558.371 126.169 558.474 126.038C558.577 125.907 558.636 125.747 558.642 125.58C558.711 124.965 558.92 124.375 559.252 123.853C559.585 123.331 560.032 122.892 560.56 122.57C560.714 122.459 560.827 122.299 560.88 122.117C560.933 121.934 560.924 121.739 560.854 121.562L560.28 120.078C560.161 119.772 560.111 119.444 560.132 119.116C560.153 118.789 560.246 118.47 560.403 118.182C560.561 117.894 560.779 117.644 561.043 117.449C561.307 117.254 561.61 117.119 561.932 117.054L562.786 116.872C563.248 116.773 563.686 116.583 564.072 116.311C564.459 116.04 564.787 115.693 565.037 115.292C565.286 114.89 565.453 114.443 565.525 113.976C565.598 113.509 565.576 113.032 565.46 112.574C565.187 111.693 564.59 110.948 563.791 110.488C562.991 110.029 562.047 109.888 561.148 110.096L527.8 117.026L527.548 116.592C526.208 114.207 524.128 112.322 521.623 111.224C519.117 110.125 516.322 109.872 513.66 110.502L513.59 110.474ZM516.39 131.866C514.651 131.885 512.944 131.399 511.476 130.466C509.74 129.326 508.453 127.62 507.834 125.637C507.216 123.655 507.304 121.519 508.084 119.594C508.864 117.669 510.287 116.075 512.111 115.082C513.935 114.089 516.047 113.76 518.087 114.15C520.127 114.54 521.968 115.626 523.297 117.222C524.626 118.817 525.36 120.825 525.375 122.901C525.389 124.978 524.683 126.996 523.377 128.61C522.07 130.224 520.244 131.335 518.21 131.754C517.614 131.862 517.009 131.909 516.404 131.894L516.39 131.866ZM516.39 115.332C515.868 115.335 515.348 115.387 514.836 115.486C513.861 115.694 512.936 116.092 512.114 116.657C511.293 117.222 510.59 117.943 510.048 118.78C509.505 119.617 509.132 120.552 508.951 121.532C508.77 122.513 508.783 123.52 508.991 124.495C509.199 125.47 509.597 126.395 510.162 127.217C510.727 128.038 511.448 128.741 512.285 129.283C513.121 129.826 514.057 130.199 515.037 130.38C516.018 130.561 517.025 130.548 518 130.34C519.464 130.035 520.805 129.304 521.854 128.238C522.903 127.172 523.613 125.819 523.895 124.351C524.176 122.882 524.017 121.362 523.436 119.984C522.855 118.606 521.88 117.431 520.632 116.606C519.393 115.782 517.935 115.348 516.446 115.36L516.39 115.332Z" fill="white"/>
<path opacity="0.6" d="M493.5 171.948C502.67 171.948 510.104 167.209 510.104 161.364C510.104 155.519 502.67 150.78 493.5 150.78C484.33 150.78 476.896 155.519 476.896 161.364C476.896 167.209 484.33 171.948 493.5 171.948Z" fill="#407BFF"/>
<path opacity="0.3" d="M467.082 176.288C470.847 176.288 473.9 174.345 473.9 171.948C473.9 169.551 470.847 167.608 467.082 167.608C463.317 167.608 460.264 169.551 460.264 171.948C460.264 174.345 463.317 176.288 467.082 176.288Z" fill="#407BFF"/>
</svg>
