<svg width="645" height="645" viewBox="0 0 645 645" fill="none" xmlns="http://www.w3.org/2000/svg">
<path d="M580.372 514.057H537.645V514.38H580.372V514.057Z" fill="#EBEBEB"/>
<path d="M427.274 517.558H416.06V517.881H427.274V517.558Z" fill="#EBEBEB"/>
<path d="M536.354 502.078H511.596V502.401H536.354V502.078Z" fill="#EBEBEB"/>
<path d="M123.391 504.245H67.6721V504.568H123.391V504.245Z" fill="#EBEBEB"/>
<path d="M143.047 504.245H134.877V504.568H143.047V504.245Z" fill="#EBEBEB"/>
<path d="M290.44 509.693H169.598V510.016H290.44V509.693Z" fill="#EBEBEB"/>
<path d="M307.537 435.762H58.4396C54.38 435.762 51.0763 432.458 51.0763 428.399V78.2514C51.0763 74.1918 54.38 70.8881 58.4396 70.8881H307.537C311.596 70.8881 314.899 74.1918 314.899 78.2514V428.399C314.899 432.458 311.596 435.762 307.537 435.762ZM58.4396 71.2119C54.5567 71.2119 51.3988 74.3698 51.3988 78.2527V428.4C51.3988 432.283 54.5567 435.441 58.4396 435.441H307.537C311.419 435.441 314.577 432.283 314.577 428.4V78.2514C314.577 74.3698 311.419 71.2106 307.537 71.2106L58.4396 71.2119Z" fill="#EBEBEB"/>
<path d="M586.56 435.762H337.463C333.404 435.762 330.101 432.458 330.101 428.399V78.2514C330.101 74.1918 333.404 70.8881 337.463 70.8881H586.56C590.621 70.8881 593.924 74.1918 593.924 78.2514V428.399C593.924 432.458 590.62 435.762 586.56 435.762ZM337.463 71.2119C333.581 71.2119 330.423 74.3698 330.423 78.2527V428.4C330.423 432.283 333.581 435.441 337.463 435.441H586.56C590.443 435.441 593.601 432.283 593.601 428.4V78.2514C593.601 74.3698 590.443 71.2106 586.56 71.2106L337.463 71.2119Z" fill="#EBEBEB"/>
<path d="M645 493.293H0V493.616H645V493.293Z" fill="#EBEBEB"/>
<path d="M153.937 406.028C152.847 393.569 140.129 388.905 125.058 390.224C109.988 391.542 98.2722 398.344 99.3623 410.803L153.937 406.028Z" fill="#F0F0F0"/>
<path d="M124.56 384.53C131.554 383.918 133.787 378.01 133.174 371.016C132.563 364.021 129.338 358.59 122.344 359.203C115.349 359.815 113.116 365.723 113.729 372.717C114.34 379.712 117.565 385.142 124.56 384.53Z" fill="#F0F0F0"/>
<path d="M438.729 140.573C439.067 144.43 436.214 147.83 432.356 148.167C428.499 148.505 425.099 145.651 424.762 141.794C424.424 137.937 427.278 134.537 431.135 134.199C434.992 133.862 438.392 136.715 438.729 140.573Z" fill="#F5F5F5"/>
<path d="M477.523 137.179C477.861 141.036 475.008 144.436 471.151 144.773C467.293 145.111 463.893 142.257 463.555 138.4C463.217 134.543 466.071 131.143 469.928 130.805C473.786 130.468 477.185 133.321 477.523 137.179Z" fill="#F5F5F5"/>
<path d="M516.317 133.785C516.655 137.642 513.802 141.042 509.945 141.38C506.088 141.718 502.687 138.865 502.349 135.007C502.011 131.15 504.865 127.75 508.722 127.412C512.579 127.074 515.979 129.927 516.317 133.785Z" fill="#F5F5F5"/>
<path d="M442.189 180.115C442.527 183.972 439.673 187.372 435.816 187.71C431.959 188.048 428.559 185.195 428.221 181.338C427.883 177.481 430.736 174.08 434.593 173.744C438.452 173.404 441.852 176.256 442.189 180.115Z" fill="#F5F5F5"/>
<path d="M480.983 176.72C481.321 180.577 478.467 183.977 474.61 184.315C470.753 184.653 467.353 181.8 467.015 177.943C466.677 174.085 469.53 170.685 473.387 170.347C477.245 170.01 480.645 172.864 480.983 176.72Z" fill="#F5F5F5"/>
<path d="M519.777 173.326C520.115 177.183 517.262 180.583 513.405 180.92C509.547 181.258 506.147 178.404 505.809 174.547C505.471 170.69 508.325 167.29 512.182 166.952C516.039 166.616 519.439 169.47 519.777 173.326Z" fill="#F5F5F5"/>
<path d="M445.649 219.656C445.987 223.513 443.133 226.914 439.276 227.252C435.419 227.59 432.018 224.736 431.682 220.879C431.344 217.022 434.197 213.621 438.054 213.283C441.91 212.945 445.311 215.799 445.649 219.656Z" fill="#F5F5F5"/>
<path d="M484.443 216.262C484.781 220.119 481.927 223.52 478.07 223.858C474.213 224.195 470.813 221.342 470.475 217.485C470.137 213.628 472.99 210.227 476.847 209.891C480.704 209.551 484.105 212.405 484.443 216.262Z" fill="#F5F5F5"/>
<path d="M523.236 212.868C523.574 216.725 520.72 220.126 516.863 220.462C513.006 220.799 509.605 217.947 509.268 214.09C508.93 210.233 511.783 206.832 515.64 206.495C519.498 206.157 522.899 209.011 523.236 212.868Z" fill="#F5F5F5"/>
<path d="M514.854 215.145L435.151 222.119L505.819 136.247L433.412 142.582C432.565 142.656 431.82 142.03 431.746 141.184C431.673 140.338 432.298 139.592 433.145 139.519L512.849 132.545L442.18 218.416L514.587 212.081C515.434 212.008 516.179 212.633 516.253 213.478C516.326 214.324 515.701 215.071 514.854 215.145Z" fill="#E6E6E6"/>
<path d="M516.076 368.432C515.813 367.672 515.133 367.108 514.331 367.055C510.675 366.81 507.587 365.443 505.142 362.988C501.954 359.787 500.08 354.916 499.777 349.133C499.72 348.056 498.817 347.216 497.739 347.21C496.544 347.202 495.592 348.211 495.657 349.403C496.024 356.186 498.318 361.987 502.216 365.902C505.262 368.961 509.19 370.753 513.666 371.143C513.744 371.15 513.844 371.159 513.96 371.168C515.445 371.285 516.564 369.838 516.076 368.432Z" fill="#F0F0F0"/>
<path d="M511.955 393.192C494.857 391.696 482.528 380.043 478.626 361.859C478.377 360.699 479.116 359.558 480.285 359.355C481.365 359.168 482.42 359.852 482.648 360.924C486.144 377.277 497.12 387.749 512.313 389.079C528.976 390.537 546.872 379.575 550.078 351.938C550.208 350.818 551.185 349.991 552.307 350.089C553.456 350.19 554.318 351.215 554.183 352.361C551.111 378.418 533.979 395.119 511.955 393.192Z" fill="#F0F0F0"/>
<path d="M479.699 343.736C478.55 343.635 477.688 342.61 477.824 341.464C480.897 315.406 498.03 298.706 520.053 300.632C539.35 302.321 552.361 316.767 554.388 338.53C554.495 339.679 553.604 340.68 552.452 340.748H552.448C551.324 340.815 550.376 339.967 550.269 338.847C548.409 319.24 536.83 306.243 519.692 304.744C503.029 303.287 485.133 314.248 481.927 341.886C481.798 343.007 480.822 343.834 479.699 343.736Z" fill="#F0F0F0"/>
<path d="M512.794 382.139C509.616 381.861 506.635 381.119 503.898 379.923C502.785 379.437 502.326 378.096 502.908 377.03C503.415 376.1 504.546 375.697 505.515 376.124C508.087 377.254 510.93 377.918 513.994 378.086C526.632 378.81 539.971 369.859 541.278 348.23C542.083 334.91 537.52 324.15 529.001 319.004C528.087 318.452 527.748 317.297 528.219 316.34C528.754 315.253 530.111 314.852 531.148 315.477C541.007 321.429 546.301 333.573 545.399 348.479C544.139 369.335 531.127 383.205 513.757 382.21C513.435 382.19 513.113 382.166 512.794 382.139Z" fill="#F0F0F0"/>
<path d="M494.413 369.273C493.415 369.955 492.05 369.637 491.444 368.589C487.786 362.263 486.076 354.106 486.606 345.346C487.812 325.396 499.773 311.837 516.015 311.57C517.22 311.551 518.194 312.558 518.126 313.762V313.767C518.064 314.839 517.191 315.682 516.117 315.703C504.073 315.94 491.971 325.045 490.729 345.595C490.246 353.572 491.772 360.934 495.044 366.564C495.581 367.489 495.297 368.669 494.413 369.273Z" fill="#F0F0F0"/>
<path d="M522.618 367.586C522.197 366.63 522.565 365.525 523.46 364.986C528.884 361.72 532.217 354.865 532.273 346.602C532.318 339.983 530.398 334.385 526.864 330.837C524.14 328.1 520.617 326.722 516.395 326.73C510.035 326.747 504.885 330.231 502.032 336.362C501.583 337.327 500.466 337.784 499.466 337.416C498.33 336.998 497.789 335.689 498.302 334.593C501.832 327.06 508.453 322.621 516.383 322.599C521.671 322.592 526.308 324.427 529.79 327.923C534.106 332.258 536.454 338.9 536.401 346.629C536.336 356.381 532.228 364.554 525.538 368.554C524.486 369.184 523.112 368.709 522.618 367.586Z" fill="#F0F0F0"/>
<path d="M507.756 352.419C506.583 352.89 505.271 352.209 504.971 350.981C504.834 350.422 504.72 349.847 504.631 349.255C503.464 341.535 507.614 334.813 514.284 333.621C517.727 333.003 520.798 333.813 523.144 335.908C524.096 336.76 524.023 338.278 522.984 339.022L522.855 339.114C522.073 339.674 521.043 339.547 520.314 338.92C518.914 337.719 517.137 337.304 515.011 337.685C509.927 338.594 507.994 343.883 508.714 348.637C508.784 349.1 508.871 349.549 508.977 349.98C509.222 350.992 508.722 352.029 507.756 352.419Z" fill="#F0F0F0"/>
<path d="M514.577 360.362C514.572 360.362 514.566 360.36 514.56 360.36C513.138 360.234 512.352 358.639 513.11 357.428L513.286 357.148C513.666 356.542 514.346 356.208 515.061 356.258C515.672 356.299 516.32 356.261 516.997 356.139C521.436 355.345 523.473 351.212 523.438 347.011C523.429 345.963 524.155 345.057 525.191 344.901C526.403 344.718 527.547 345.618 527.57 346.844C527.693 353.575 523.73 359.131 517.723 360.204C516.64 360.398 515.586 360.451 514.577 360.362Z" fill="#F0F0F0"/>
<path d="M515.494 352.74C513.296 352.548 511.658 351.067 511.063 348.953C510.719 347.727 511.747 346.54 513.014 346.651L513.487 346.693C514.222 346.757 514.829 347.26 515.074 347.957C515.194 348.297 515.423 348.589 515.853 348.626C516.845 348.713 517.019 347.29 517.045 347.004C517.063 346.8 517.106 346.009 516.768 345.543C516.436 345.087 516.209 344.564 516.258 344.002C516.419 342.166 518.739 341.428 519.909 342.852C520.839 343.985 521.316 345.57 521.159 347.363C520.863 350.739 518.481 353.002 515.494 352.74Z" fill="#F0F0F0"/>
<path d="M476.699 306.572C475.562 306.473 474.723 305.472 474.822 304.336L476.387 286.448L494.274 288.013C495.41 288.112 496.25 289.114 496.151 290.25C496.051 291.386 495.05 292.226 493.914 292.127L480.141 290.922L478.936 304.695C478.836 305.832 477.834 306.672 476.699 306.572Z" fill="#F0F0F0"/>
<path d="M561.746 314.013C560.609 313.914 559.77 312.913 559.869 311.776L561.074 298.003L547.301 296.798C546.164 296.699 545.324 295.698 545.424 294.561C545.523 293.425 546.524 292.585 547.66 292.684L565.548 294.249L563.983 312.136C563.884 313.273 562.882 314.112 561.746 314.013Z" fill="#F0F0F0"/>
<path d="M555.406 410.181L537.518 408.617C536.382 408.517 535.542 407.516 535.642 406.38C535.741 405.243 536.742 404.403 537.878 404.503L551.652 405.708L552.857 391.934C552.956 390.798 553.957 389.958 555.093 390.057C556.23 390.157 557.07 391.158 556.97 392.294L555.406 410.181Z" fill="#F0F0F0"/>
<path d="M484.131 403.945L466.243 402.381L467.808 384.494C467.908 383.357 468.909 382.517 470.045 382.617C471.182 382.716 472.021 383.717 471.922 384.853L470.717 398.627L484.49 399.832C485.627 399.931 486.467 400.932 486.367 402.069C486.268 403.205 485.267 404.045 484.131 403.945Z" fill="#F0F0F0"/>
<path d="M96.4017 365.233C95.7038 365.293 95.0872 364.777 95.0266 364.078L94.0642 353.081L105.061 352.118C105.761 352.058 106.376 352.574 106.437 353.273C106.497 353.971 105.981 354.587 105.282 354.648L96.8132 355.389L97.5537 363.857C97.6169 364.557 97.0996 365.172 96.4017 365.233Z" fill="#E0E0E0"/>
<path d="M148.693 360.658C147.995 360.719 147.379 360.203 147.318 359.504L146.578 351.035L138.109 351.775C137.411 351.836 136.794 351.32 136.734 350.621C136.673 349.923 137.189 349.306 137.888 349.246L148.885 348.283L149.848 359.28C149.908 359.981 149.392 360.598 148.693 360.658Z" fill="#E0E0E0"/>
<path d="M154.111 408.014L143.114 408.976C142.416 409.037 141.799 408.521 141.739 407.822C141.678 407.124 142.194 406.507 142.893 406.447L151.362 405.706L150.622 397.237C150.561 396.538 151.077 395.923 151.776 395.862C152.474 395.802 153.091 396.318 153.151 397.017L154.111 408.014Z" fill="#E0E0E0"/>
<path d="M110.287 411.848L99.29 412.81L98.3277 401.812C98.267 401.114 98.783 400.497 99.4822 400.437C100.18 400.376 100.797 400.892 100.857 401.591L101.598 410.06L110.067 409.32C110.765 409.259 111.381 409.775 111.442 410.474C111.502 411.171 110.985 411.786 110.287 411.848Z" fill="#E0E0E0"/>
<path d="M147.812 181.823L105.718 185.506L104.856 175.655C103.962 165.436 111.549 156.396 121.767 155.502C131.986 154.608 141.027 162.194 141.921 172.412L142.421 178.136L148.494 177.605L147.994 171.881C146.807 158.313 134.804 148.242 121.236 149.428C107.667 150.615 97.5962 162.619 98.783 176.187L99.6499 186.094C94.7518 187.049 91.2649 191.566 91.7087 196.648L94.7157 231.017C95.1917 236.452 99.9828 240.471 105.418 239.997L152.541 235.874C157.976 235.399 161.996 230.608 161.521 225.173L158.514 190.804C158.038 185.368 153.247 181.347 147.812 181.823ZM129.931 208.307L130.967 220.141C131.138 222.084 129.7 223.796 127.758 223.966C125.815 224.136 124.103 222.699 123.933 220.756L122.897 208.922C121.352 207.97 120.249 206.341 120.078 204.393C119.792 201.123 122.212 198.239 125.482 197.953C128.752 197.667 131.635 200.087 131.922 203.357C132.091 205.303 131.287 207.1 129.931 208.307Z" fill="#EBEBEB"/>
<path d="M219.874 201.747L215.618 194.809C213.313 195.128 211.427 195.128 209.122 194.809L204.866 201.747L204.05 201.53C201.307 200.801 198.661 199.702 196.187 198.266L195.456 197.842L197.26 190.311C197.406 189.701 198.019 189.325 198.629 189.471C199.239 189.617 199.615 190.23 199.468 190.84L198.059 196.715C199.897 197.716 201.83 198.518 203.821 199.109L207.978 192.331L208.73 192.454C211.139 192.847 213.598 192.847 216.008 192.454L216.76 192.331L220.916 199.109C222.908 198.517 224.841 197.716 226.679 196.715L224.829 188.994L225.448 188.55C227.135 187.338 228.64 185.904 229.931 184.283C230.314 183.8 230.996 183.687 231.496 184.047C232.014 184.42 232.136 185.155 231.739 185.655C230.47 187.258 229.012 188.692 227.39 189.936L229.285 197.842L228.554 198.266C226.08 199.702 223.434 200.801 220.692 201.53L219.874 201.747ZM193.79 186.601C193.433 186.192 193.087 185.772 192.756 185.339L184.848 187.233L184.424 186.503C182.988 184.029 181.889 181.383 181.16 178.64L180.943 177.824L187.881 173.568C187.721 172.412 187.643 171.344 187.643 170.32C187.643 169.297 187.722 168.228 187.881 167.072L180.943 162.817L181.16 162.001C181.889 159.258 182.988 156.612 184.424 154.138L184.848 153.408L192.754 155.302C194.079 153.573 195.621 152.033 197.349 150.707L195.915 144.724C195.769 144.115 196.144 143.503 196.752 143.358L196.756 143.356C197.365 143.211 197.976 143.586 198.122 144.194L199.907 151.647L199.283 152.096C197.302 153.523 195.564 155.26 194.139 157.242L193.693 157.86L185.973 156.01C184.973 157.848 184.172 159.781 183.58 161.772L190.355 165.927L190.232 166.68C190.016 168.01 189.91 169.2 189.91 170.319C189.91 171.44 190.016 172.629 190.232 173.958L190.355 174.708L183.579 178.866C184.169 180.859 184.972 182.79 185.972 184.629L193.692 182.779L194.137 183.397C194.557 183.98 195.007 184.546 195.481 185.089C195.876 185.541 195.866 186.215 195.434 186.632L195.392 186.672C194.938 187.114 194.208 187.078 193.79 186.601ZM239.891 187.234L236.976 186.537C236.365 186.391 235.99 185.778 236.136 185.168C236.282 184.559 236.894 184.182 237.504 184.328L238.764 184.63C239.763 182.792 240.564 180.859 241.156 178.867L234.38 174.71L234.503 173.959C234.719 172.63 234.825 171.44 234.825 170.32C234.825 169.2 234.719 168.011 234.503 166.681L234.38 165.929L241.155 161.774C240.564 159.781 239.762 157.849 238.762 156.011L231.042 157.861L230.597 157.243C229.171 155.262 227.433 153.524 225.452 152.097L224.828 151.648L226.677 143.928C224.839 142.928 222.907 142.126 220.915 141.534L216.759 148.31L216.007 148.189C213.596 147.798 211.137 147.798 208.726 148.189L207.975 148.31L203.819 141.535C203.561 141.611 203.303 141.692 203.045 141.776C202.469 141.964 201.85 141.655 201.642 141.087C201.423 140.49 201.734 139.817 202.338 139.619C202.904 139.433 203.476 139.264 204.044 139.114L204.862 138.896L209.118 145.834C211.434 145.513 213.298 145.513 215.613 145.834L219.869 138.896L220.687 139.112C223.429 139.842 226.075 140.941 228.549 142.376L229.279 142.8L227.384 150.708C229.113 152.034 230.655 153.574 231.979 155.303L239.886 153.409L240.31 154.139C241.746 156.614 242.845 159.259 243.574 162.002L243.791 162.819L236.853 167.073C237.013 168.229 237.09 169.298 237.09 170.321C237.09 171.345 237.012 172.414 236.853 173.569L243.791 177.825L243.574 178.642C242.845 181.384 241.746 184.03 240.31 186.504L239.891 187.234ZM212.051 181.374C206.288 181.211 201.481 176.407 201.316 170.644C201.15 164.835 205.491 159.983 211.093 159.337C211.77 159.258 212.37 159.788 212.37 160.471C212.37 161.044 211.943 161.525 211.374 161.589C206.434 162.149 202.722 166.821 203.757 172.09C204.429 175.511 207.186 178.268 210.608 178.936C216.223 180.034 221.159 175.743 221.159 170.32C221.159 168.505 220.599 166.748 219.568 165.276C219.243 164.812 219.331 164.177 219.757 163.802C220.266 163.351 221.061 163.446 221.449 164.004C222.733 165.849 223.429 168.048 223.429 170.32C223.427 176.524 218.294 181.549 212.051 181.374Z" fill="#F0F0F0"/>
<path d="M139.725 296.174L136.976 291.692C135.487 291.899 134.268 291.899 132.78 291.692L130.031 296.174L129.503 296.033C127.731 295.562 126.021 294.853 124.423 293.924L123.951 293.649L125.117 288.783C125.211 288.39 125.607 288.146 126.001 288.241C126.394 288.336 126.637 288.732 126.543 289.125L125.633 292.92C126.821 293.567 128.069 294.085 129.356 294.467L132.041 290.089L132.527 290.169C134.084 290.423 135.672 290.423 137.229 290.169L137.715 290.089L140.401 294.467C141.688 294.085 142.936 293.567 144.124 292.92L142.928 287.933L143.328 287.645C144.418 286.862 145.389 285.936 146.224 284.889C146.472 284.578 146.913 284.504 147.235 284.736C147.57 284.978 147.648 285.452 147.393 285.776C146.572 286.811 145.631 287.738 144.582 288.542L145.806 293.649L145.334 293.924C143.736 294.851 142.026 295.561 140.254 296.033L139.725 296.174ZM122.874 286.39C122.643 286.126 122.42 285.855 122.206 285.575L117.097 286.799L116.824 286.327C115.896 284.729 115.187 283.02 114.716 281.247L114.575 280.719L119.057 277.97C118.953 277.224 118.903 276.533 118.903 275.872C118.903 275.211 118.953 274.52 119.057 273.773L114.575 271.024L114.716 270.496C115.187 268.724 115.896 267.016 116.824 265.416L117.097 264.944L122.206 266.168C123.061 265.051 124.057 264.057 125.174 263.2L124.248 259.335C124.153 258.942 124.396 258.547 124.788 258.453L124.791 258.451C125.184 258.357 125.579 258.6 125.673 258.993L126.826 263.809L126.423 264.099C125.143 265.02 124.021 266.142 123.1 267.423L122.812 267.823L117.823 266.629C117.178 267.817 116.66 269.064 116.278 270.352L120.655 273.036L120.576 273.523C120.436 274.382 120.369 275.151 120.369 275.874C120.369 276.598 120.437 277.367 120.576 278.226L120.656 278.711L116.279 281.397C116.661 282.684 117.18 283.932 117.825 285.12L122.813 283.925L123.101 284.325C123.372 284.702 123.662 285.068 123.969 285.419C124.224 285.71 124.217 286.146 123.938 286.415L123.911 286.441C123.616 286.721 123.145 286.697 122.874 286.39ZM152.656 286.798L150.773 286.348C150.379 286.254 150.135 285.858 150.23 285.464C150.324 285.071 150.72 284.828 151.113 284.922L151.927 285.117C152.572 283.929 153.091 282.682 153.473 281.394L149.096 278.708L149.176 278.223C149.315 277.365 149.383 276.595 149.383 275.872C149.383 275.148 149.315 274.379 149.176 273.52L149.097 273.034L153.474 270.349C153.092 269.062 152.573 267.814 151.928 266.626L146.94 267.821L146.652 267.421C145.731 266.141 144.609 265.018 143.329 264.096L142.926 263.806L144.121 258.818C142.933 258.172 141.686 257.654 140.398 257.271L137.714 261.648L137.229 261.569C135.672 261.317 134.084 261.317 132.526 261.569L132.041 261.648L129.356 257.271C129.19 257.32 129.022 257.373 128.857 257.427C128.485 257.548 128.085 257.349 127.951 256.982C127.809 256.596 128.011 256.162 128.4 256.034C128.766 255.914 129.135 255.804 129.502 255.708L130.031 255.567L132.78 260.05C134.276 259.842 135.48 259.842 136.976 260.05L139.725 255.567L140.253 255.708C142.024 256.18 143.733 256.889 145.333 257.815L145.805 258.09L144.581 263.199C145.698 264.055 146.692 265.05 147.549 266.167L152.657 264.943L152.931 265.415C153.858 267.013 154.568 268.722 155.039 270.495L155.179 271.023L150.698 273.771C150.801 274.518 150.851 275.209 150.851 275.87C150.851 276.532 150.801 277.222 150.698 277.969L155.179 280.718L155.039 281.246C154.568 283.018 153.858 284.727 152.931 286.326L152.656 286.798ZM134.672 283.012C130.948 282.907 127.844 279.804 127.737 276.079C127.629 272.327 130.433 269.192 134.053 268.774C134.49 268.724 134.877 269.067 134.877 269.507C134.877 269.877 134.601 270.188 134.234 270.229C131.042 270.59 128.644 273.609 129.312 277.013C129.746 279.223 131.527 281.005 133.738 281.437C137.366 282.146 140.555 279.374 140.555 275.87C140.555 274.698 140.193 273.563 139.528 272.612C139.317 272.313 139.374 271.901 139.649 271.658C139.979 271.367 140.491 271.429 140.743 271.79C141.572 272.982 142.023 274.402 142.023 275.87C142.02 279.878 138.703 283.127 134.672 283.012Z" fill="#E6E6E6"/>
<path d="M322.5 550.851C460.636 550.851 572.617 544.311 572.617 536.244C572.617 528.177 460.636 521.637 322.5 521.637C184.364 521.637 72.3832 528.177 72.3832 536.244C72.3832 544.311 184.364 550.851 322.5 550.851Z" fill="#F5F5F5"/>
<path d="M468.851 188.117H426.847L397.137 527.708H439.141C451.086 527.708 461.654 517.99 462.698 506.045L488.618 209.78C489.663 197.834 480.796 188.117 468.851 188.117Z" fill="#407BFF"/>
<path d="M460.28 188.117H318.123C306.178 188.117 295.61 197.834 294.565 209.78L268.645 506.045C267.6 517.99 276.468 527.708 288.413 527.708H430.57C442.515 527.708 453.083 517.99 454.128 506.045L480.048 209.78C481.093 197.834 472.225 188.117 460.28 188.117Z" fill="#407BFF"/>
<path opacity="0.3" d="M460.28 188.117H318.123C306.178 188.117 295.61 197.834 294.565 209.78L268.645 506.045C267.6 517.99 276.468 527.708 288.413 527.708H430.57C442.515 527.708 453.083 517.99 454.128 506.045L480.048 209.78C481.093 197.834 472.225 188.117 460.28 188.117Z" fill="white"/>
<path opacity="0.4" d="M459.672 195.057H422.192C419.981 195.057 417.906 196.508 417.087 198.626C414.056 206.457 406.384 211.819 398.21 211.819H376.047C367.873 211.819 361.137 206.455 359.477 198.626C359.028 196.508 357.206 195.058 354.995 195.058H317.515C309.385 195.058 302.217 201.649 301.505 209.78L275.585 506.045C274.874 514.176 280.888 520.767 289.019 520.767H431.176C439.307 520.767 446.474 514.176 447.186 506.045L473.106 209.78C473.817 201.649 467.803 195.057 459.672 195.057Z" fill="white"/>
<path d="M424.259 355.986H324.769C321.819 355.986 319.637 353.594 319.895 350.645L320.393 344.952C320.651 342.002 323.252 339.612 326.202 339.612H425.692C428.642 339.612 430.824 342.003 430.566 344.952L430.068 350.645C429.81 353.594 427.209 355.986 424.259 355.986Z" fill="white"/>
<path d="M422.11 380.547H322.62C319.67 380.547 317.488 378.156 317.746 375.207L318.244 369.514C318.502 366.564 321.103 364.173 324.053 364.173H423.543C426.493 364.173 428.675 366.565 428.417 369.514L427.919 375.207C427.661 378.156 425.06 380.547 422.11 380.547Z" fill="white"/>
<path opacity="0.1" d="M394.03 200.607C393.744 203.878 390.861 206.529 387.59 206.529C384.318 206.529 381.899 203.878 382.186 200.607C382.472 197.335 385.355 194.684 388.627 194.684C391.897 194.684 394.317 197.335 394.03 200.607Z" fill="black"/>
<path opacity="0.1" d="M391.343 200.607C391.187 202.393 389.612 203.842 387.824 203.842C386.038 203.842 384.715 202.393 384.871 200.607C385.028 198.82 386.603 197.371 388.391 197.371C390.179 197.371 391.5 198.82 391.343 200.607Z" fill="black"/>
<g opacity="0.8">
<path d="M442.172 210.485C441.214 210.485 440.504 209.709 440.588 208.75L440.865 205.578C440.949 204.62 441.794 203.843 442.752 203.843C443.711 203.843 444.42 204.62 444.337 205.578L444.059 208.75C443.975 209.709 443.13 210.485 442.172 210.485Z" fill="white"/>
<path d="M456.055 210.485C455.097 210.485 454.387 209.709 454.471 208.75L455.122 201.306C455.206 200.347 456.051 199.571 457.01 199.571C457.968 199.571 458.678 200.347 458.594 201.306L457.942 208.75C457.858 209.709 457.013 210.485 456.055 210.485Z" fill="white"/>
<path d="M449.113 210.485C448.155 210.485 447.446 209.709 447.529 208.75L447.994 203.442C448.078 202.483 448.923 201.707 449.881 201.707C450.839 201.707 451.549 202.483 451.465 203.442L451.001 208.75C450.917 209.709 450.072 210.485 449.113 210.485Z" fill="white"/>
</g>
<g opacity="0.8">
<path d="M323.319 210.485H314.605C314.062 210.485 313.661 210.045 313.709 209.502L314.118 204.824C314.165 204.28 314.644 203.841 315.186 203.841H323.9C324.443 203.841 324.844 204.28 324.796 204.824L324.387 209.502C324.34 210.045 323.862 210.485 323.319 210.485Z" fill="white"/>
<path d="M327.359 209.216C326.816 209.216 326.415 208.776 326.463 208.233L326.65 206.093C326.698 205.55 327.176 205.11 327.718 205.11C328.261 205.11 328.662 205.55 328.615 206.093L328.428 208.233C328.381 208.776 327.902 209.216 327.359 209.216Z" fill="white"/>
</g>
<path d="M407.882 318.567C425.241 301.951 426.971 275.587 411.746 259.681C396.521 243.776 370.106 244.352 352.747 260.968C335.389 277.585 333.659 303.949 348.884 319.854C364.109 335.76 390.523 335.183 407.882 318.567Z" fill="white"/>
<path d="M380.448 288.159C369.502 288.159 360.263 292.323 359.473 301.372L358.594 311.415H398.235L399.113 301.372C399.904 292.323 391.395 288.159 380.448 288.159Z" fill="#407BFF"/>
<path d="M380.811 284.023C385.891 284.023 388.233 279.906 388.677 274.826C389.122 269.745 387.499 265.628 382.419 265.628C377.339 265.628 374.997 269.745 374.551 274.826C374.108 279.906 375.731 284.023 380.811 284.023Z" fill="#407BFF"/>
<path d="M419.718 347.505C417.014 347.505 414.732 348.533 414.538 350.769L414.321 353.25H424.112L424.329 350.769C424.524 348.533 422.422 347.505 419.718 347.505Z" fill="#407BFF"/>
<path d="M419.807 346.484C421.062 346.484 421.64 345.466 421.75 344.212C421.86 342.957 421.46 341.94 420.205 341.94C418.949 341.94 418.372 342.958 418.262 344.212C418.152 345.467 418.553 346.484 419.807 346.484Z" fill="#407BFF"/>
<path d="M389.572 405.109H350.861C346.339 405.109 342.994 401.444 343.39 396.921C343.786 392.4 347.772 388.734 352.294 388.734H391.005C395.527 388.734 398.872 392.4 398.476 396.921C398.08 401.444 394.094 405.109 389.572 405.109Z" fill="#407BFF"/>
<path d="M384.902 496.415H343.472C338.693 496.415 335.159 492.541 335.577 487.763L338.22 457.545C338.638 452.767 342.85 448.893 347.628 448.893H389.059C393.837 448.893 397.372 452.767 396.954 457.545L394.31 487.763C393.892 492.541 389.681 496.415 384.902 496.415Z" fill="#407BFF"/>
<g opacity="0.6">
<path d="M372.125 465.178C372.377 462.302 370.249 459.971 367.374 459.971C364.499 459.971 361.964 462.302 361.712 465.178C361.563 466.89 362.268 468.396 363.461 469.345L362.551 479.75C362.401 481.458 363.664 482.842 365.372 482.842C367.08 482.842 368.585 481.458 368.735 479.75L369.646 469.345C371.007 468.396 371.975 466.891 372.125 465.178Z" fill="white"/>
</g>
<path d="M389.426 455.183H384.087L385.395 440.232C386.181 431.247 379.512 423.938 370.527 423.938C361.542 423.938 353.593 431.247 352.807 440.232L351.499 455.183H346.16L347.468 440.232C348.512 428.303 359.065 418.599 370.994 418.599C382.922 418.599 391.778 428.303 390.735 440.232L389.426 455.183Z" fill="#407BFF"/>
<path d="M420.374 370.403L420.499 368.968C420.628 367.502 419.539 366.31 418.072 366.31C416.605 366.31 415.309 367.503 415.181 368.968L415.056 370.403C414.471 370.403 413.955 370.878 413.904 371.463L413.57 375.276C413.518 375.862 413.952 376.337 414.538 376.337H419.852C420.438 376.337 420.954 375.862 421.006 375.276L421.34 371.463C421.391 370.878 420.959 370.403 420.374 370.403ZM418.015 366.965C419.12 366.965 419.939 367.863 419.843 368.967L419.718 370.402H415.713L415.838 368.967C415.935 367.863 416.911 366.965 418.015 366.965Z" fill="#407BFF"/>
<path d="M340.363 371.93L338.508 371.547C338.288 371.502 338.175 371.271 338.266 371.054L339.039 369.228C339.206 368.835 338.728 368.545 338.428 368.856L337.025 370.301C336.859 370.472 336.592 370.472 336.457 370.301L335.307 368.856C335.061 368.547 334.533 368.835 334.63 369.228L335.083 371.054C335.137 371.271 334.983 371.502 334.755 371.547L332.833 371.93C332.42 372.013 332.37 372.592 332.768 372.674L334.623 373.058C334.843 373.103 334.956 373.334 334.865 373.55L334.092 375.377C333.926 375.769 334.403 376.059 334.703 375.749L336.106 374.304C336.272 374.132 336.539 374.132 336.675 374.304L337.824 375.749C338.07 376.059 338.598 375.769 338.501 375.377L338.048 373.55C337.994 373.334 338.148 373.103 338.376 373.058L340.298 372.674C340.711 372.592 340.761 372.011 340.363 371.93Z" fill="#263238"/>
<path d="M352.57 371.93L350.715 371.547C350.496 371.502 350.382 371.271 350.474 371.054L351.246 369.228C351.413 368.835 350.935 368.545 350.635 368.856L349.233 370.301C349.066 370.472 348.801 370.472 348.664 370.301L347.514 368.856C347.268 368.547 346.74 368.835 346.837 369.228L347.29 371.054C347.344 371.271 347.189 371.502 346.962 371.547L345.04 371.93C344.627 372.013 344.577 372.592 344.974 372.674L346.829 373.058C347.049 373.103 347.162 373.334 347.071 373.55L346.298 375.377C346.131 375.769 346.609 376.059 346.909 375.749L348.312 374.304C348.478 374.132 348.744 374.132 348.881 374.304L350.03 375.749C350.276 376.059 350.804 375.769 350.707 375.377L350.254 373.55C350.2 373.334 350.355 373.103 350.582 373.058L352.504 372.674C352.918 372.592 352.968 372.011 352.57 371.93Z" fill="#263238"/>
<path d="M364.777 371.93L362.922 371.547C362.703 371.502 362.589 371.271 362.681 371.054L363.454 369.228C363.62 368.835 363.143 368.545 362.842 368.856L361.44 370.301C361.274 370.472 361.007 370.472 360.871 370.301L359.722 368.856C359.475 368.547 358.948 368.835 359.044 369.228L359.497 371.054C359.551 371.271 359.398 371.502 359.17 371.547L357.247 371.93C356.835 372.013 356.784 372.592 357.182 372.674L359.037 373.058C359.256 373.103 359.37 373.334 359.278 373.55L358.505 375.377C358.339 375.769 358.816 376.059 359.117 375.749L360.519 374.304C360.685 374.132 360.952 374.132 361.088 374.304L362.237 375.749C362.484 376.059 363.011 375.769 362.914 375.377L362.462 373.55C362.407 373.334 362.561 373.103 362.789 373.058L364.711 372.674C365.125 372.592 365.176 372.011 364.777 371.93Z" fill="#263238"/>
<path d="M376.986 371.93L375.131 371.547C374.911 371.502 374.798 371.271 374.889 371.054L375.662 369.228C375.829 368.835 375.351 368.545 375.051 368.856L373.648 370.301C373.482 370.472 373.215 370.472 373.08 370.301L371.93 368.856C371.684 368.547 371.156 368.835 371.253 369.228L371.706 371.054C371.76 371.271 371.606 371.502 371.378 371.547L369.456 371.93C369.043 372.013 368.993 372.592 369.392 372.674L371.247 373.058C371.466 373.103 371.579 373.334 371.488 373.55L370.715 375.377C370.549 375.769 371.026 376.059 371.327 375.749L372.729 374.304C372.895 374.132 373.162 374.132 373.298 374.304L374.447 375.749C374.693 376.059 375.221 375.769 375.124 375.377L374.671 373.55C374.617 373.334 374.771 373.103 374.999 373.058L376.921 372.674C377.333 372.592 377.384 372.011 376.986 371.93Z" fill="#263238"/>
<path d="M389.193 371.93L387.338 371.547C387.119 371.502 387.005 371.271 387.097 371.054L387.869 369.228C388.036 368.835 387.559 368.545 387.258 368.856L385.856 370.301C385.689 370.472 385.422 370.472 385.287 370.301L384.138 368.856C383.891 368.547 383.364 368.835 383.46 369.228L383.913 371.054C383.967 371.271 383.814 371.502 383.585 371.547L381.663 371.93C381.25 372.013 381.2 372.592 381.598 372.674L383.453 373.058C383.672 373.103 383.785 373.334 383.694 373.55L382.921 375.377C382.756 375.769 383.232 376.059 383.533 375.749L384.935 374.304C385.101 374.132 385.367 374.132 385.504 374.304L386.653 375.749C386.899 376.059 387.427 375.769 387.33 375.377L386.877 373.55C386.823 373.334 386.978 373.103 387.205 373.058L389.127 372.674C389.54 372.592 389.592 372.011 389.193 371.93Z" fill="#263238"/>
<path d="M401.4 371.93L399.545 371.547C399.326 371.502 399.212 371.271 399.304 371.054L400.077 369.228C400.242 368.835 399.766 368.545 399.465 368.856L398.063 370.301C397.897 370.472 397.631 370.472 397.494 370.301L396.345 368.856C396.098 368.547 395.571 368.835 395.668 369.228L396.12 371.054C396.174 371.271 396.02 371.502 395.793 371.547L393.871 371.93C393.458 372.013 393.407 372.592 393.805 372.674L395.66 373.058C395.879 373.103 395.993 373.334 395.901 373.55L395.128 375.377C394.962 375.769 395.439 376.059 395.74 375.749L397.142 374.304C397.308 374.132 397.575 374.132 397.711 374.304L398.86 375.749C399.107 376.059 399.634 375.769 399.538 375.377L399.085 373.55C399.031 373.334 399.184 373.103 399.412 373.058L401.334 372.674C401.747 372.592 401.799 372.011 401.4 371.93Z" fill="#263238"/>
<path d="M371.975 345.219H349.055C347.63 345.219 346.375 346.374 346.25 347.798C346.125 349.222 347.179 350.377 348.603 350.377H371.524C372.948 350.377 374.203 349.222 374.328 347.798C374.453 346.374 373.4 345.219 371.975 345.219Z" fill="#263238"/>
<path d="M395.243 345.219H381.943C380.519 345.219 379.264 346.374 379.139 347.798C379.014 349.222 380.068 350.377 381.492 350.377H394.792C396.216 350.377 397.471 349.222 397.596 347.798C397.721 346.374 396.667 345.219 395.243 345.219Z" fill="#263238"/>
<path d="M412.801 462.161C404.16 465.611 396.583 470.645 391.398 476.369C388.357 473.781 384.034 471.984 378.852 471.162L378.245 471.065L377.979 474.109L378.318 474.236C383.433 476.169 387.596 479.598 390.358 484.15L390.791 484.866L391.271 484.098C396.586 475.589 404.336 468.461 413.093 464.026L413.39 463.875L413.566 461.852L412.801 462.161Z" fill="#263238"/>
<path opacity="0.2" d="M297.532 208.172C295.921 211.006 294.858 214.168 294.564 217.518L275.353 437.104H334.792L346.735 391.318L342.805 345.532L354.747 299.746L350.817 253.96L362.76 208.174H297.532V208.172Z" fill="black"/>
<path d="M345.657 241.06L357.598 195.272H207.282L195.34 241.06L199.271 286.846L187.329 332.632L191.259 378.419L179.316 424.205H329.632L341.575 378.419L337.645 332.632L349.586 286.846L345.657 241.06Z" fill="#407BFF"/>
<path opacity="0.7" d="M345.657 241.06L357.598 195.272H207.282L195.34 241.06L199.271 286.846L187.329 332.632L191.259 378.419L179.316 424.205H329.632L341.575 378.419L337.645 332.632L349.586 286.846L345.657 241.06Z" fill="white"/>
<path opacity="0.5" d="M345.656 241.06H195.34L207.282 195.272H357.598L345.656 241.06Z" fill="white"/>
<path opacity="0.5" d="M337.645 332.632H187.329L199.271 286.846H349.587L337.645 332.632Z" fill="white"/>
<path opacity="0.5" d="M329.632 424.205H179.316L191.259 378.419H341.575L329.632 424.205Z" fill="white"/>
<path opacity="0.2" d="M325.542 260.193C324.251 260.597 322.597 260.839 320.795 260.839C318.141 260.839 315.809 260.314 314.483 259.523C314.119 259.305 313.719 259.197 313.319 259.197C312.948 259.197 312.577 259.302 312.234 259.489C312.208 259.503 312.18 259.508 312.156 259.523C312.141 259.532 312.123 259.539 312.109 259.548C311.618 259.834 310.998 260.086 310.276 260.288C309.036 260.635 307.504 260.84 305.845 260.84C305.395 260.84 304.952 260.825 304.524 260.797C303.238 260.709 302.065 260.497 301.098 260.195C300.929 260.143 300.758 260.112 300.592 260.1C299.422 260.023 298.371 260.92 298.371 262.161V263.56H239.945C235.424 263.56 231.758 267.225 231.758 271.747V279.998C231.758 284.52 235.424 288.186 239.945 288.186H306.415C306.562 288.186 306.704 288.172 306.85 288.164C307.567 288.757 308.314 289.349 309.105 289.949C310.052 290.667 311.049 291.394 312.094 292.153C312.821 292.68 313.82 292.68 314.547 292.153C322.905 286.091 328.271 281.91 328.271 270.423V262.163C328.27 260.742 326.896 259.77 325.542 260.193Z" fill="black"/>
<path d="M305.144 283.639H238.675C234.153 283.639 230.487 279.974 230.487 275.451V267.2C230.487 262.679 234.152 259.013 238.675 259.013H305.144C309.666 259.013 313.332 262.677 313.332 267.2V275.451C313.332 279.972 309.666 283.639 305.144 283.639Z" fill="#407BFF"/>
<path d="M319.525 256.293C316.872 256.293 314.541 255.768 313.213 254.977C312.484 254.543 311.615 254.543 310.886 254.977C309.56 255.768 307.229 256.293 304.574 256.293C302.771 256.293 301.118 256.051 299.827 255.648C298.474 255.225 297.099 256.196 297.099 257.615V265.875C297.099 277.363 302.465 281.544 310.823 287.605C311.55 288.133 312.549 288.133 313.277 287.605C321.634 281.544 327.001 277.363 327.001 265.875V257.615C327.001 256.196 325.627 255.225 324.272 255.648C322.981 256.051 321.329 256.293 319.525 256.293Z" fill="#407BFF"/>
<path opacity="0.3" d="M319.525 256.293C316.872 256.293 314.541 255.768 313.213 254.977C312.484 254.543 311.615 254.543 310.886 254.977C309.56 255.768 307.229 256.293 304.574 256.293C302.771 256.293 301.118 256.051 299.827 255.648C298.474 255.225 297.099 256.196 297.099 257.615V265.875C297.099 277.363 302.465 281.544 310.823 287.605C311.55 288.133 312.549 288.133 313.277 287.605C321.634 281.544 327.001 277.363 327.001 265.875V257.615C327.001 256.196 325.627 255.225 324.272 255.648C322.981 256.051 321.329 256.293 319.525 256.293Z" fill="white"/>
<path opacity="0.2" d="M310.886 254.977C309.56 255.768 307.229 256.293 304.574 256.293C302.771 256.293 301.118 256.051 299.827 255.648C298.474 255.225 297.099 256.197 297.099 257.614V265.875C297.099 277.363 302.465 281.544 310.823 287.605C311.187 287.869 311.618 288.001 312.05 288.001V254.651C311.65 254.651 311.25 254.759 310.886 254.977Z" fill="white"/>
<path d="M324.03 263.621C318.629 265.855 314.007 269.115 310.974 272.822C308.858 271.146 305.957 269.983 302.554 269.45L302.155 269.388V271.359L302.382 271.442C305.805 272.693 308.694 274.914 310.742 277.862L311.063 278.325L311.33 277.829C314.29 272.318 318.906 267.701 324.325 264.829L324.51 264.731V263.422L324.03 263.621Z" fill="#263238"/>
<path d="M354.945 208.148H349.242C346.079 208.148 343.74 205.585 344.016 202.422L344.515 196.718C344.793 193.555 347.58 190.992 350.743 190.992H356.446C359.609 190.992 361.948 193.557 361.672 196.718L361.173 202.422C360.896 205.585 358.108 208.148 354.945 208.148Z" fill="#407BFF"/>
<path d="M357.315 196.707L356.077 195.35L352.962 198.214L350.349 195.35L348.873 196.707L351.486 199.571L348.372 202.435L349.611 203.792L352.725 200.928L355.338 203.792L356.814 202.435L354.2 199.571L357.315 196.707Z" fill="white"/>
<path d="M227.52 257.347C230.826 260.943 233.985 264.667 237.105 268.426C240.228 272.181 243.273 276.003 246.282 279.859C246.413 280.027 246.36 279.958 246.391 280.009C246.406 280.031 246.408 280.067 246.426 280.085C246.46 280.122 246.478 280.184 246.518 280.218C246.577 280.313 246.663 280.382 246.75 280.472C246.933 280.636 247.183 280.761 247.462 280.812C247.6 280.833 247.746 280.854 247.894 280.838C247.974 280.848 248.045 280.824 248.129 280.821C248.173 280.823 248.205 280.799 248.248 280.794C248.313 280.766 248.272 280.824 248.45 280.718L251.682 278.966C256.016 276.671 260.385 274.428 264.904 272.414L268.681 277.092C265.041 280.442 261.25 284.632 257.423 287.702L254.534 289.974C254.46 290.041 254.149 290.245 253.955 290.375C253.731 290.518 253.513 290.673 253.277 290.8C252.809 291.058 252.337 291.316 251.835 291.514C250.844 291.943 249.787 292.215 248.715 292.38C246.564 292.7 244.33 292.483 242.244 291.736C241.204 291.362 240.197 290.863 239.28 290.226C238.81 289.921 238.38 289.564 237.952 289.204C237.737 289.025 237.544 288.825 237.343 288.63L236.83 288.11C233.416 284.609 230.041 281.074 226.741 277.473C223.438 273.873 220.175 270.242 217.058 266.48L227.52 257.347Z" fill="#B55B52"/>
<path d="M263.147 275.263L266.154 265.605L274.07 269.549C274.07 269.549 272.916 276.597 267.154 277.818L263.147 275.263Z" fill="#B55B52"/>
<path d="M269.33 262.925L276.469 264.891L274.071 269.548L266.155 265.603L269.33 262.925Z" fill="#B55B52"/>
<path d="M185.881 259.979C185.02 264.082 183.967 268.139 182.864 272.185C181.766 276.232 180.568 280.254 179.322 284.264L178.857 285.769L178.625 286.521C178.576 286.684 178.544 286.726 178.5 286.835C178.358 287.216 178.273 287.629 178.256 288.062C178.234 288.921 178.438 289.877 179 290.708C179.047 290.842 179.492 291.309 179.839 291.686L180.91 292.849L183.021 295.214C184.412 296.81 185.797 298.411 187.113 300.094L182.618 305.298C180.761 304.241 178.976 303.102 177.194 301.958L174.549 300.213L173.241 299.321C172.795 299.012 172.438 298.804 171.726 298.214C169.273 296.134 167.439 293.18 166.767 289.899C166.424 288.262 166.34 286.555 166.531 284.866C166.582 284.46 166.658 283.988 166.72 283.641L166.856 282.866L167.13 281.315C167.853 277.178 168.625 273.053 169.496 268.951C170.363 264.849 171.28 260.758 172.387 256.714L185.881 259.979Z" fill="#B55B52"/>
<path d="M182.696 299.726L188.019 297.004L190.367 306.051C190.367 306.051 186.095 307.688 182.789 305.585L182.696 299.726Z" fill="#B55B52"/>
<path d="M195.373 294.111L195.614 302.41L189.671 306.296L187.61 297.18L195.373 294.111Z" fill="#B55B52"/>
<path d="M212.775 217.325C212.905 217.965 213.349 218.414 213.767 218.329C214.185 218.243 214.419 217.657 214.288 217.017C214.158 216.377 213.714 215.928 213.296 216.013C212.88 216.098 212.646 216.685 212.775 217.325Z" fill="#263238"/>
<path d="M213.291 218.425C213.291 218.425 215.494 221.818 217.457 223.272C216.539 224.558 214.519 224.466 214.519 224.466L213.291 218.425Z" fill="#A02724"/>
<path d="M209.713 214.25C209.62 214.25 209.526 214.216 209.452 214.148C209.297 214.005 209.287 213.762 209.431 213.606C210.87 212.049 212.615 212.326 212.691 212.338C212.9 212.374 213.04 212.571 213.005 212.78C212.969 212.988 212.769 213.127 212.565 213.094C212.507 213.085 211.142 212.885 209.995 214.126C209.919 214.208 209.816 214.25 209.713 214.25Z" fill="#263238"/>
<path d="M194.172 226.318C195.595 232.235 197.015 243.077 191.937 247.025C191.937 247.025 193.921 253.027 207.41 253.027C222.243 253.027 214.499 249.161 214.499 249.161C206.404 247.586 206.612 240.554 208.022 235.957L194.172 226.318Z" fill="#B55B52"/>
<path d="M190.356 248.122C189.473 246.478 188.499 244.597 190.512 244.007C192.727 243.359 206.957 242.156 211.137 243.374C209.852 245.659 212.027 248.467 212.027 248.467L190.356 248.122Z" fill="#263238"/>
<path d="M202.138 524.926H211.445L212.371 506.193H203.065L202.138 524.926Z" fill="#B55B52"/>
<path d="M143.078 522.346L152.504 522.844L158.233 504.39L148.805 503.891L143.078 522.346Z" fill="#B55B52"/>
<path d="M152.216 522.098L143.334 520.174C143.012 520.105 142.683 520.269 142.545 520.569L139.462 527.258C139.142 527.952 139.565 528.766 140.315 528.914C143.426 529.532 144.973 529.677 148.878 530.522C151.281 531.041 156.704 532.364 160.023 533.082C163.269 533.785 164.485 530.613 163.191 530.022C157.389 527.371 154.965 525.037 153.394 522.862C153.111 522.471 152.69 522.201 152.216 522.098Z" fill="#263238"/>
<path d="M210.952 523.989H202.12C201.79 523.989 201.503 524.219 201.431 524.541L199.833 531.73C199.668 532.476 200.233 533.182 200.996 533.169C204.183 533.114 208.787 532.927 212.792 532.927C217.475 532.927 221.519 533.183 227.01 533.183C230.331 533.183 231.252 529.826 229.863 529.522C223.535 528.138 218.369 527.989 212.9 524.619C212.307 524.252 211.65 523.989 210.952 523.989Z" fill="#263238"/>
<path d="M175.085 249.76C168.061 253.099 166.152 273.346 166.152 273.346L183.528 281.375C183.528 281.375 187.841 275.022 188.171 265.032C188.517 254.566 182.267 246.345 175.085 249.76Z" fill="#263238"/>
<path opacity="0.4" d="M184.511 262.245C181.374 267.115 181.671 274.65 182.757 281.017L183.524 281.377C183.524 281.377 187.842 275.016 188.174 265.029C188.193 264.405 188.19 263.784 188.168 263.181L184.511 262.245Z" fill="black"/>
<path d="M223.574 249.271C223.574 249.271 232.183 258.995 224.052 319.182C211.017 319.182 187.133 319.182 180.79 319.182C180.492 312.541 184.665 280.145 178.259 248.854C178.259 248.854 185.675 247.365 192.741 247.025C198.269 246.759 206.272 246.582 211.132 247.025C217.539 247.61 223.574 249.271 223.574 249.271Z" fill="#407BFF"/>
<path opacity="0.6" d="M223.574 249.271C223.574 249.271 232.183 258.995 224.052 319.182C211.017 319.182 187.133 319.182 180.79 319.182C180.492 312.541 184.665 280.145 178.259 248.854C178.259 248.854 185.675 247.365 192.741 247.025C198.269 246.759 206.272 246.582 211.132 247.025C217.539 247.61 223.574 249.271 223.574 249.271Z" fill="#FAFAFA"/>
<path opacity="0.2" d="M227.355 267.666L227.19 267.523L218.585 262.925C217.711 276.174 223.633 284.479 227.156 288.111C227.641 279.623 227.63 272.928 227.355 267.666Z" fill="black"/>
<path opacity="0.2" d="M212.37 506.199L211.894 515.854H202.583L203.059 506.199H212.37Z" fill="black"/>
<path opacity="0.2" d="M148.803 503.896L158.233 504.395L155.275 513.906L145.845 513.408L148.803 503.896Z" fill="black"/>
<path d="M191.177 220.304C193.255 228.058 194.077 232.702 198.863 235.926C206.059 240.775 215.021 235.21 215.301 226.991C215.554 219.594 212.112 208.157 203.792 206.594C195.594 205.055 189.099 212.549 191.177 220.304Z" fill="#B55B52"/>
<path d="M208.705 319.182C208.705 319.182 199.526 380.995 194.487 404.153C188.968 429.512 159.378 513.414 159.378 513.414L144.899 510.279C144.899 510.279 163.455 441.905 168.086 406.452C169.893 392.617 172.074 370.315 174.835 351.721C177.508 333.714 180.79 319.182 180.79 319.182H208.705Z" fill="#263238"/>
<path d="M162.844 508.579C162.906 508.592 160.146 513.815 160.146 513.815L143.856 510.288L145.23 505.391L162.844 508.579Z" fill="#407BFF"/>
<path opacity="0.6" d="M162.844 508.579C162.906 508.592 160.146 513.815 160.146 513.815L143.856 510.288L145.23 505.391L162.844 508.579Z" fill="white"/>
<path opacity="0.6" d="M202.904 341.205C192.29 343.286 193.414 382.867 194.691 403.226C197.752 388.836 202.232 361.145 205.293 341.491C204.589 341.139 203.795 341.03 202.904 341.205Z" fill="black"/>
<path d="M224.052 319.182C224.052 319.182 228.37 379.657 227.49 404.323C226.576 429.979 214.411 513.985 214.411 513.985H200.709C200.709 513.985 200.205 431.478 199.597 406.282C198.932 378.812 195.616 319.182 195.616 319.182H224.052Z" fill="#263238"/>
<path d="M217.046 508.527C217.11 508.527 216.274 514.216 216.274 514.216H199.606L199.155 509.139L217.046 508.527Z" fill="#407BFF"/>
<path opacity="0.6" d="M217.046 508.527C217.11 508.527 216.274 514.216 216.274 514.216H199.606L199.155 509.139L217.046 508.527Z" fill="white"/>
<path d="M218.525 260.599C218.525 276.829 227.161 283.511 227.161 283.511L241.199 269.788C241.199 269.788 236.426 261.564 229.863 254.015C221.752 244.689 218.525 250.163 218.525 260.599Z" fill="#263238"/>
<path opacity="0.2" d="M214.809 229.928C214.453 230.923 213.518 232.609 211.169 233.281C207.743 234.261 207.698 237.165 207.698 237.165L207.74 237.219C211.009 236.14 213.731 233.438 214.809 229.928Z" fill="black"/>
<path d="M211.17 204.892C214.063 201.245 209.613 201.071 209.613 201.071C210.769 196.717 205.565 199.061 205.565 199.061C202.441 194.755 200.679 199.995 200.679 199.995C197.438 196.347 196.842 202.309 196.842 202.309C193.593 197.682 191.938 204.357 191.938 204.357C188.945 199.551 187.113 205.812 187.113 205.812C180.934 203.599 183.871 210.021 183.871 210.021C178.597 210.169 182.828 214.25 182.828 214.25C176.509 214.265 182.081 217.884 182.081 217.884C177.063 221.176 183.362 222.062 183.362 222.062C179.267 228.464 186.298 226.089 186.298 226.089C183.45 232.426 189.765 229.634 189.765 229.634C189.355 235.749 192.887 234.085 194.585 232.952C194.913 234.184 195.524 235.488 196.659 235.637C198.863 235.924 199.291 231.765 199.291 231.765C199.291 231.765 201.335 233.356 203.05 232.494C204.764 231.632 204.118 229.451 204.118 229.451C204.118 229.451 205.43 230.43 206.632 229.496C207.367 228.925 207.371 224.819 206.434 223.375L209.791 222.061C209.791 222.061 212.284 221.71 211.17 218.424C210.058 215.14 211.001 212.546 211.001 212.546C214.791 210.769 211.683 208.633 211.683 208.633C216.065 205.794 211.17 204.892 211.17 204.892Z" fill="#263238"/>
<path d="M204.368 220.629C204.896 222.664 206.234 224.414 207.632 225.455C209.737 227.021 211.308 225.479 211.159 223.098C211.025 220.954 209.767 217.556 207.445 216.92C205.159 216.293 203.766 218.302 204.368 220.629Z" fill="#B55B52"/>
</svg>
